<svg width="608" height="200" viewBox="0 0 608 200" fill="none" xmlns="http://www.w3.org/2000/svg">
<g clip-path="url(#clip0_54_9)">
<path d="M50.4906 114.76L66.1936 77.7599L78.9726 114.76H94.0106L117.036 61.5198C124.359 44.8838 119.567 25.5838 103.193 30.6368L99.0676 40.3558C110.38 38.0958 113.576 54.5959 106.921 69.9019L90.9496 106.509L67.3946 36.4958H51.1556L63.2676 69.6378L47.2966 106.771L19.7426 36.4969H2.97363L34.7806 114.76H50.4906ZM146.187 114.76H161.628V36.4969H146.187V114.76ZM196.363 114.76H246.541L248.674 108.766H211.669V36.4969H196.363V114.76ZM264.241 114.76H278.749V77.7599H304.171L306.037 72.0338H278.749V42.4828H314.15L316.288 36.4969H264.241V114.76ZM327.063 75.8928C327.063 99.7218 346.097 116.754 368.588 116.754C391.218 116.754 410.252 99.7218 410.252 75.8928C410.252 51.9338 391.218 34.8988 368.588 34.8988C346.098 34.8988 327.063 51.9338 327.063 75.8928ZM343.566 76.0229C343.433 47.6779 355.814 40.2218 368.323 40.2218C380.969 40.2218 393.345 47.4098 393.617 75.7618C393.745 104.109 381.502 111.562 368.855 111.562C356.346 111.562 343.838 104.375 343.566 76.0229ZM434.473 114.76H448.981V87.0718H458.831L478.658 114.76H496.096L473.339 85.3438C487.178 81.6148 493.304 72.4339 493.304 61.3849C493.304 45.0149 481.859 36.4969 458.83 36.4969H434.473V114.76ZM477.731 61.3849C477.731 72.2979 473.073 82.0149 457.894 82.0149H448.98V41.4199H457.501C472.669 41.4199 477.731 50.4719 477.731 61.3849ZM575.419 36.4969H505.547L507.674 42.4828H532.83V114.759H547.742V42.4828H573.292L575.419 36.4969Z" fill="black"/>
<path d="M3.21399 199.396L0.541992 193.373H600.467V6.43896H3.21399L0.541992 0.417969H607.716V199.396H3.21399Z" fill="black"/>
<path d="M26.3673 171.724L17.9113 150.469H14.6593L6.19531 171.724H9.4953L11.8393 165.957H20.7313L23.1153 171.724H26.3673ZM19.8173 163.264H12.7483L16.3093 153.985L19.8173 163.264ZM50.6663 171.724V168.996H40.8613V162.44H48.7533V159.707H40.8613V153.719H50.4033V150.99H37.5643V171.723H50.6663V171.724ZM79.2993 171.724L73.5713 163.007C76.4743 162.525 78.4263 160.097 78.4263 156.891C78.4263 153.069 75.6983 150.991 70.7043 150.991H63.7213V171.724H67.0183V163.264H70.0153L75.4773 171.724H79.2993ZM74.8713 157.019C74.8713 158.147 74.5243 158.969 73.7413 159.664C72.8353 160.447 72.3943 160.531 70.2713 160.531H67.0183V153.719H70.2713C72.6573 153.719 72.9183 153.764 73.6153 154.29C74.4383 154.891 74.8713 155.807 74.8713 157.019ZM111.876 161.357C111.876 155.157 107.021 150.596 100.379 150.596C93.7013 150.596 88.8853 155.157 88.8853 161.357C88.8853 167.607 93.7013 172.113 100.379 172.113C107.021 172.113 111.876 167.607 111.876 161.357ZM108.362 161.357C108.362 165.912 104.932 169.379 100.379 169.379C95.8243 169.379 92.3553 165.911 92.3553 161.357C92.3553 156.801 95.8243 153.374 100.379 153.374C104.932 153.374 108.362 156.802 108.362 161.357Z" fill="black"/>
</g>
<defs>
<clipPath id="clip0_54_9">
<rect width="608" height="200" fill="white"/>
</clipPath>
</defs>
</svg>
