<svg width="400" height="401" viewBox="0 0 400 401" fill="none" xmlns="http://www.w3.org/2000/svg">
<g clip-path="url(#clip0_54_13)">
<path d="M221.332 373.968C214.088 374.873 206.898 375.291 199.821 375.291C112.928 375.291 37.6127 310.453 26.7737 221.985C25.8677 214.713 25.4358 207.551 25.4358 200.46C25.4358 113.581 90.3028 38.2519 178.77 27.4269C186 26.5209 193.162 26.0899 200.281 26.0899C226.473 26.0899 251.619 32.0249 274.258 42.6959L274.244 42.7379C275.707 43.3649 277.086 44.0479 278.467 44.7169C279.108 45.0509 279.748 45.3849 280.389 45.7199C282.118 46.6539 283.76 47.6289 285.321 48.6459C212.305 49.7049 153.665 75.2839 152.774 75.5899L162.792 98.6199C162.806 98.6199 166.079 97.1849 172.53 94.8579C191.853 87.8079 237.814 73.6259 289.572 73.6679C295.437 73.6539 301.386 73.9049 307.377 74.3089C311.625 84.0609 313.549 95.3179 313.744 107.997C313.799 135.22 303.699 176.151 288.318 203.793C276.851 224.495 264.773 242.718 253.976 255.173C243.415 268.004 233.021 273.299 231.851 272.532C231.699 272.476 231.642 272.504 231.628 272.504C231.56 272.504 231.628 272.532 231.142 272.17C230.165 271.459 227.337 267.308 225.47 258.739C223.507 250.283 222.267 237.8 222.281 221.291C222.281 206.815 223.215 189.206 225.248 168.224C226.404 156.229 227.799 147.159 228.912 141.155C229.65 138.634 232.326 128.992 233.594 126.443C229.024 124.91 215.803 121.706 210.076 119.992C207.931 125.426 205.896 130.762 204.49 135.206C202.623 141.628 199.335 151.966 194.153 165.577C184.986 189.986 169.758 226.027 145.378 274.51C140.195 284.848 135.264 291.702 131.487 295.395C127.6 299.17 125.594 299.323 125.539 299.282C125.455 299.226 125.246 299.505 123.574 297.93C118.196 293.457 110.952 271.975 111.342 244.891C111.315 216.861 117.57 182.505 132.561 150.851L109.866 140.11C93.0928 175.678 86.2518 213.238 86.2238 244.891C86.2798 265.385 89.0368 283.371 94.5398 297.428C97.3538 304.478 100.838 310.664 105.783 315.665C110.576 320.568 117.555 324.387 125.33 324.387H125.539C134.622 324.345 142.494 319.776 149.084 313.297C155.743 306.693 161.762 297.735 167.822 285.809C179.566 262.418 189.262 241.813 197.204 223.924C197.386 246.229 199.503 262.459 204.086 274.747C206.482 281.128 209.672 286.603 214.424 290.881C219.106 295.199 225.666 297.707 231.852 297.623C248.571 296.844 260.12 285.768 272.938 271.612C285.504 257.095 298.196 237.73 310.276 215.968C327.231 185.304 338.78 141.196 338.821 107.996C338.891 103.287 338.655 98.5779 338.153 93.9109C356.766 117.943 369.36 147.102 373.317 179.424C374.221 186.641 374.639 193.816 374.655 200.921C374.652 287.813 309.771 363.129 221.332 373.968ZM398.238 176.373C390.017 109.458 349.615 54.4139 294.445 24.7389C292.523 23.6529 290.531 22.6079 288.468 21.6459C261.663 8.36886 231.64 0.984863 200.28 0.984863C192.172 0.984863 183.952 1.47286 175.676 2.50386C74.5168 14.9449 0.34375 100.988 0.34375 200.462C0.34375 208.57 0.830748 216.777 1.84775 225.066C14.2887 326.239 100.332 400.398 199.82 400.412C207.929 400.412 216.12 399.896 224.368 398.893H224.382C325.583 386.453 399.755 300.395 399.755 200.922C399.756 192.798 399.242 184.62 398.238 176.373Z" fill="black"/>
<path d="M221.332 373.968C214.088 374.873 206.898 375.291 199.821 375.291C112.928 375.291 37.6127 310.453 26.7737 221.985C25.8677 214.713 25.4358 207.551 25.4358 200.46C25.4358 113.581 90.3028 38.2519 178.77 27.4269C186 26.5209 193.162 26.0899 200.281 26.0899C226.473 26.0899 251.619 32.0249 274.258 42.6959L274.244 42.7379C275.707 43.3649 277.086 44.0479 278.467 44.7169C279.108 45.0509 279.748 45.3849 280.389 45.7199C282.118 46.6539 283.76 47.6289 285.321 48.6459C212.305 49.7049 153.665 75.2839 152.774 75.5899L162.792 98.6199C162.806 98.6199 166.079 97.1849 172.53 94.8579C191.853 87.8079 237.814 73.6259 289.572 73.6679C295.437 73.6539 301.386 73.9049 307.377 74.3089C311.625 84.0609 313.549 95.3179 313.744 107.997C313.799 135.22 303.699 176.151 288.318 203.793C276.851 224.495 264.773 242.718 253.976 255.173C243.415 268.004 233.021 273.299 231.851 272.532C231.699 272.476 231.642 272.504 231.628 272.504C231.56 272.504 231.628 272.532 231.142 272.17C230.165 271.459 227.337 267.308 225.47 258.739C223.507 250.283 222.267 237.8 222.281 221.291C222.281 206.815 223.215 189.206 225.248 168.224C226.404 156.229 227.799 147.159 228.912 141.155C229.65 138.634 232.326 128.992 233.594 126.443C229.024 124.91 215.803 121.706 210.076 119.992C207.931 125.426 205.896 130.762 204.49 135.206C202.623 141.628 199.335 151.966 194.153 165.577C184.986 189.986 169.758 226.027 145.378 274.51C140.195 284.848 135.264 291.702 131.487 295.395C127.6 299.17 125.594 299.323 125.539 299.282C125.455 299.226 125.246 299.505 123.574 297.93C118.196 293.457 110.952 271.975 111.342 244.891C111.315 216.861 117.57 182.505 132.561 150.851L109.866 140.11C93.0928 175.678 86.2518 213.238 86.2238 244.891C86.2798 265.385 89.0368 283.371 94.5398 297.428C97.3538 304.478 100.838 310.664 105.783 315.665C110.576 320.568 117.555 324.387 125.33 324.387H125.539C134.622 324.345 142.494 319.776 149.084 313.297C155.743 306.693 161.762 297.735 167.822 285.809C179.566 262.418 189.262 241.813 197.204 223.924C197.386 246.229 199.503 262.459 204.086 274.747C206.482 281.128 209.672 286.603 214.424 290.881C219.106 295.199 225.666 297.707 231.852 297.623C248.571 296.844 260.12 285.768 272.938 271.612C285.504 257.095 298.196 237.73 310.276 215.968C327.231 185.304 338.78 141.196 338.821 107.996C338.891 103.287 338.655 98.5779 338.153 93.9109C356.766 117.943 369.36 147.102 373.317 179.424C374.221 186.641 374.639 193.816 374.655 200.921C374.652 287.813 309.771 363.129 221.332 373.968ZM398.238 176.373C390.017 109.458 349.615 54.4139 294.445 24.7389C292.523 23.6529 290.531 22.6079 288.468 21.6459C261.663 8.36886 231.64 0.984863 200.28 0.984863C192.172 0.984863 183.952 1.47286 175.676 2.50386C74.5168 14.9449 0.34375 100.988 0.34375 200.462C0.34375 208.57 0.830748 216.777 1.84775 225.066C14.2887 326.239 100.332 400.398 199.82 400.412C207.929 400.412 216.12 399.896 224.368 398.893H224.382C325.583 386.453 399.755 300.395 399.755 200.922C399.756 192.798 399.242 184.62 398.238 176.373Z" stroke="black" stroke-width="0.25" stroke-miterlimit="1" stroke-linejoin="round"/>
</g>
<defs>
<clipPath id="clip0_54_13">
<rect width="400" height="401" fill="white"/>
</clipPath>
</defs>
</svg>